<?xml version="1.0" encoding="utf-8"?>
<!-- Generator: Adobe Illustrator 26.0.1, SVG Export Plug-In . SVG Version: 6.00 Build 0)  -->
<svg version="1.1" id="Layer_1" xmlns="http://www.w3.org/2000/svg" xmlns:xlink="http://www.w3.org/1999/xlink" x="0px" y="0px"
	 viewBox="0 0 372 44.8" style="enable-background:new 0 0 372 44.8;" xml:space="preserve">
<style type="text/css">
	.st0{fill:#1358CF;}
</style>
<rect x="55.4" class="st0" width="316.6" height="44.1"/>
<g>
	<path class="st0" d="M13.2,17.3l-0.7-2.7h-4l-0.8,2.7H4.6L8.7,5.1h3.8l4.1,12.2H13.2z M10.5,7.8l-1.4,4.7h2.8L10.5,7.8L10.5,7.8z"
		/>
	<path class="st0" d="M20.8,17.3h-2.9V5.1h2.5l5.1,7.1h0.1V5.1h2.9v12.2h-2.5l-5.1-7.2h-0.1V17.3z"/>
	<path class="st0" d="M36.1,17.6c-1.6,0.1-3.2-0.5-4.3-1.6c-1.1-1.3-1.7-2.9-1.6-4.7c-0.1-1.7,0.5-3.3,1.6-4.7
		c1.1-1.1,2.7-1.7,4.3-1.6c1,0,1.9,0.2,2.8,0.7c0.8,0.4,1.5,1,2,1.7s0.7,1.6,0.7,2.5h-2.9c-0.1-0.7-0.3-1.3-0.8-1.7
		c-0.5-0.4-1.1-0.7-1.7-0.7c-0.8,0-1.6,0.3-2,0.9c-0.6,0.8-0.8,1.8-0.7,2.8c-0.1,1,0.2,2,0.7,2.8c0.5,0.7,1.2,1.1,2,1
		c0.7,0,1.2-0.2,1.7-0.7c0.5-0.5,0.7-1.1,0.8-1.7h2.9c0,1.3-0.7,2.6-1.6,3.5C38.9,17.1,37.5,17.6,36.1,17.6z"/>
	<path class="st0" d="M5.2,25.9h5.2c1.1-0.1,2.3,0.4,3.2,1.1c0.8,0.8,1.2,2,1.2,3.1c0.1,1.1-0.4,2.3-1.2,3.1c-0.9,0.8-2,1.2-3.3,1.1
		h-2v3.7H5.3L5.2,25.9L5.2,25.9z M8.3,28.3v3.8h1.3c0.6,0,1.1-0.2,1.6-0.5c0.4-0.4,0.6-0.9,0.6-1.5s-0.2-1.1-0.6-1.5
		c-0.4-0.3-1-0.5-1.6-0.5L8.3,28.3z"/>
	<path class="st0" d="M20.7,38.1h-3.1V25.9h3.1v5.3h0.1l4.2-5.3h3.3L24,31.3l4.4,6.8h-3.7l-3.1-4.7l-1.1,1.3L20.7,38.1L20.7,38.1z"
		/>
	<path class="st0" d="M41.3,32.9c0.1,1.5-0.4,2.9-1.5,3.9c-1.1,1-2.6,1.6-4.1,1.4c-1.6,0.1-3.3-0.5-4.4-1.6
		c-1.1-1.3-1.7-2.9-1.6-4.7c-0.1-1.7,0.5-3.3,1.6-4.6c1.1-1.1,2.8-1.7,4.3-1.6c1.3-0.1,2.6,0.4,3.8,1.2c1,0.7,1.6,1.8,1.8,3h-2.9
		c-0.2-0.5-0.4-1-0.9-1.2c-0.5-0.3-1-0.6-1.6-0.6c-0.8,0-1.6,0.3-2,1C33.2,30,32.9,31,33,31.9c-0.1,1,0.2,2,0.8,2.9
		c0.5,0.7,1.3,1.1,2.1,1.1c0.7,0,1.2-0.2,1.7-0.6c0.4-0.3,0.7-0.9,0.7-1.5v-0.2h-2.2v-2.1h5.2L41.3,32.9z"/>
	<rect x="4.7" y="21.8" class="st0" width="36.3" height="0.8"/>
	<path class="st0" d="M46.1,44.1H0V0h46.1C46.1,0,46.1,44.1,46.1,44.1z M0.8,43.3h44.4V0.8H0.8V43.3z"/>
</g>
</svg>
